<?xml version="1.0" encoding="UTF-8" standalone="no"?>
<!-- Created with Inkscape (http://www.inkscape.org/) -->

<svg
   xmlns:dc="http://purl.org/dc/elements/1.1/"
   xmlns:cc="http://creativecommons.org/ns#"
   xmlns:rdf="http://www.w3.org/1999/02/22-rdf-syntax-ns#"
   xmlns:svg="http://www.w3.org/2000/svg"
   xmlns="http://www.w3.org/2000/svg"
   xmlns:xlink="http://www.w3.org/1999/xlink"
   xmlns:sodipodi="http://sodipodi.sourceforge.net/DTD/sodipodi-0.dtd"
   xmlns:inkscape="http://www.inkscape.org/namespaces/inkscape"
   width="98.562782"
   height="97.698486"
   viewBox="0 0 26.078069 25.849392"
   version="1.1"
   id="svg1178"
   sodipodi:docname="captain.svg"
   inkscape:version="0.92.2 (5c3e80d, 2017-08-06)">
  <defs
     id="defs1172">
    <linearGradient
       inkscape:collect="always"
       xlink:href="#linearGradient1080"
       id="linearGradient1090"
       x1="137.17288"
       y1="221.21494"
       x2="141.11464"
       y2="225.25162"
       gradientUnits="userSpaceOnUse"
       gradientTransform="matrix(0.91930591,0,0,0.97388957,-81.384017,-56.248375)" />
    <linearGradient
       inkscape:collect="always"
       id="linearGradient1080">
      <stop
         style="stop-color:#ffffff;stop-opacity:1"
         offset="0"
         id="stop1076" />
      <stop
         style="stop-color:#c8c8c8;stop-opacity:1"
         offset="1"
         id="stop1078" />
    </linearGradient>
    <linearGradient
       inkscape:collect="always"
       xlink:href="#linearGradient1112"
       id="linearGradient1120"
       x1="140.56033"
       y1="224.2813"
       x2="139.33197"
       y2="222.70766"
       gradientUnits="userSpaceOnUse"
       gradientTransform="matrix(0.91930591,0,0,0.97388957,-81.384017,-56.248375)" />
    <linearGradient
       id="linearGradient1112"
       inkscape:collect="always">
      <stop
         id="stop1108"
         offset="0"
         style="stop-color:#d8e3e5;stop-opacity:1" />
      <stop
         id="stop1110"
         offset="1"
         style="stop-color:#8aabb2;stop-opacity:1" />
    </linearGradient>
    <linearGradient
       inkscape:collect="always"
       xlink:href="#linearGradient1080"
       id="linearGradient1098"
       x1="117.02094"
       y1="221.05937"
       x2="120.31841"
       y2="226.02031"
       gradientUnits="userSpaceOnUse"
       gradientTransform="matrix(0.87932227,0,0,1.0027771,-77.645575,-62.8074)" />
    <linearGradient
       inkscape:collect="always"
       xlink:href="#linearGradient1112"
       id="linearGradient1106"
       x1="119.35789"
       y1="224.62254"
       x2="118.18385"
       y2="222.53975"
       gradientUnits="userSpaceOnUse"
       gradientTransform="matrix(1.0385432,0.13221522,-0.11565525,1.1872459,-70.607639,-119.14911)" />
    <linearGradient
       inkscape:collect="always"
       xlink:href="#linearGradient1080"
       id="linearGradient1082"
       x1="122.33942"
       y1="221.01448"
       x2="136.22931"
       y2="236.10623"
       gradientUnits="userSpaceOnUse"
       gradientTransform="translate(-92.339583,-62.177083)" />
    <linearGradient
       inkscape:collect="always"
       xlink:href="#linearGradient1134"
       id="linearGradient1136"
       x1="132.30907"
       y1="229.40549"
       x2="131.90334"
       y2="228.14326"
       gradientUnits="userSpaceOnUse"
       gradientTransform="matrix(1,0,0,0.94525331,-92.339583,-49.662249)" />
    <linearGradient
       inkscape:collect="always"
       id="linearGradient1134">
      <stop
         style="stop-color:#747a83;stop-opacity:1;"
         offset="0"
         id="stop1130" />
      <stop
         style="stop-color:#a6aab0;stop-opacity:1"
         offset="1"
         id="stop1132" />
    </linearGradient>
    <linearGradient
       inkscape:collect="always"
       xlink:href="#linearGradient1080"
       id="linearGradient1144"
       x1="132.23453"
       y1="231.65471"
       x2="132.09032"
       y2="232.84041"
       gradientUnits="userSpaceOnUse"
       gradientTransform="matrix(0.99661493,-0.08221123,0.09174414,1.1121787,-113.12645,-77.637889)" />
    <linearGradient
       inkscape:collect="always"
       xlink:href="#linearGradient1112"
       id="linearGradient1128"
       x1="129.92987"
       y1="227.52467"
       x2="133.54463"
       y2="233.74239"
       gradientUnits="userSpaceOnUse"
       gradientTransform="translate(-92.339583,-62.177083)" />
    <linearGradient
       inkscape:collect="always"
       xlink:href="#linearGradient1160"
       id="linearGradient1154"
       x1="124.13379"
       y1="205.98528"
       x2="127.02332"
       y2="223.77232"
       gradientUnits="userSpaceOnUse"
       gradientTransform="translate(-92.339583,-62.177083)" />
    <linearGradient
       inkscape:collect="always"
       id="linearGradient1160">
      <stop
         style="stop-color:#d8e3e5;stop-opacity:1"
         offset="0"
         id="stop1156" />
      <stop
         style="stop-color:#179bbb;stop-opacity:1"
         offset="1"
         id="stop1158" />
    </linearGradient>
    <linearGradient
       inkscape:collect="always"
       xlink:href="#linearGradient1160"
       id="linearGradient1168"
       x1="129.34247"
       y1="233.90935"
       x2="130.28816"
       y2="240.64453"
       gradientUnits="userSpaceOnUse"
       gradientTransform="translate(-92.339583,-62.177083)" />
    <linearGradient
       inkscape:collect="always"
       xlink:href="#linearGradient1134"
       id="linearGradient2053"
       gradientUnits="userSpaceOnUse"
       gradientTransform="matrix(1,0,0,0.94525331,-92.339583,-49.662249)"
       x1="132.30907"
       y1="229.40549"
       x2="131.90334"
       y2="228.14326" />
    <linearGradient
       inkscape:collect="always"
       xlink:href="#linearGradient1080"
       id="linearGradient5098"
       gradientUnits="userSpaceOnUse"
       gradientTransform="matrix(0.87932227,0,0,1.0027771,-77.645575,-62.8074)"
       x1="117.02094"
       y1="221.05937"
       x2="120.31841"
       y2="226.02031" />
  </defs>
  <sodipodi:namedview
     id="base"
     pagecolor="#ffffff"
     bordercolor="#666666"
     borderopacity="1.0"
     inkscape:pageopacity="0.0"
     inkscape:pageshadow="2"
     inkscape:zoom="2.8"
     inkscape:cx="-29.458977"
     inkscape:cy="103.42471"
     inkscape:document-units="px"
     inkscape:current-layer="g2051"
     showgrid="false"
     units="px"
     inkscape:window-width="1920"
     inkscape:window-height="1017"
     inkscape:window-x="-8"
     inkscape:window-y="-8"
     inkscape:window-maximized="1"
     showborder="true"
     borderlayer="false"
     fit-margin-top="-1.9428903e-016"
     fit-margin-left="0"
     fit-margin-right="0"
     fit-margin-bottom="0" />
  <metadata
     id="metadata1175">
    <rdf:RDF>
      <cc:Work
         rdf:about="">
        <dc:format>image/svg+xml</dc:format>
        <dc:type
           rdf:resource="http://purl.org/dc/dcmitype/StillImage" />
        <dc:title />
      </cc:Work>
    </rdf:RDF>
  </metadata>
  <g
     inkscape:label="Layer 1"
     inkscape:groupmode="layer"
     id="layer1"
     transform="translate(-86.746679,-153.29554)">
    <g
       transform="matrix(0.9195472,0,0,0.89057398,65.95864,19.384216)"
       id="g1738">
      <g
         id="g2051"
         transform="matrix(0.98966051,0,0,0.98966051,0.37769913,1.7073871)">
        <g
           id="g5096"
           transform="translate(0.14945241,-0.25731675)">
          <path
             style="opacity:1;fill:url(#linearGradient1090);fill-opacity:1;fill-rule:nonzero;stroke:none;stroke-width:0.25034985;stroke-linecap:round;stroke-miterlimit:4;stroke-dasharray:none;stroke-opacity:1;paint-order:normal"
             d="m 46.443236,158.54049 c 1.441333,-0.19035 2.629959,1.24739 2.629959,2.78611 0,1.53873 -1.329491,3.55914 -2.781976,3.55914 -1.452485,0 -1.819076,-2.18782 -2.477934,-3.55914 -0.666598,-1.3874 -0.842865,-2.32748 2.629951,-2.78611 z"
             id="path1070"
             inkscape:connector-curvature="0"
             sodipodi:nodetypes="sssss" />
          <path
             sodipodi:nodetypes="sssss"
             inkscape:connector-curvature="0"
             id="path1072"
             d="m 46.478555,159.61794 c 0.149177,-0.0437 2.218653,-0.45251 1.47077,2.13546 -0.158552,0.54865 -0.109144,0.3041 -0.551087,0.552 -0.523119,0.29343 -0.832207,-0.91624 -1.050784,-1.34041 -0.475786,-0.9233 -0.885449,-1.04898 0.131101,-1.34705 z"
             style="opacity:1;fill:url(#linearGradient1120);fill-opacity:1;fill-rule:nonzero;stroke:none;stroke-width:0.14115216;stroke-linecap:round;stroke-miterlimit:4;stroke-dasharray:none;stroke-opacity:1;paint-order:normal" />
          <path
             sodipodi:nodetypes="sssss"
             inkscape:connector-curvature="0"
             id="path1065"
             d="m 27.154014,157.95621 c -0.994065,-0.11354 -2.947418,1.58925 -2.947418,3.17362 0,1.58437 1.271667,3.66471 2.660979,3.66471 1.389312,0 1.739959,-2.25272 2.370161,-3.66471 0.637605,-1.42856 -0.449132,-2.98691 -2.083722,-3.17362 z"
             style="opacity:1;fill:url(#linearGradient5098);fill-opacity:1;fill-rule:nonzero;stroke:none;stroke-width:0.24844982;stroke-linecap:round;stroke-miterlimit:4;stroke-dasharray:none;stroke-opacity:1;paint-order:normal" />
          <path
             style="opacity:1;fill:url(#linearGradient1106);fill-opacity:1;fill-rule:nonzero;stroke:none;stroke-width:0.16667165;stroke-linecap:round;stroke-miterlimit:4;stroke-dasharray:none;stroke-opacity:1;paint-order:normal"
             d="m 27.10332,159.51117 c -0.877801,-0.35417 -1.829465,0.91276 -1.77578,1.97516 0.05345,1.05766 0.66875,1.83509 1.59391,1.95287 0.925151,0.11778 0.653921,-0.70192 1.165401,-1.59104 0.517484,-0.89956 0.828748,-1.60579 -0.983531,-2.33699 z"
             id="path1068"
             inkscape:connector-curvature="0"
             sodipodi:nodetypes="sssss" />
          <path
             sodipodi:nodetypes="cscsc"
             inkscape:connector-curvature="0"
             id="path1044"
             d="m 37.466617,155.58011 c -5.75425,0.0806 -10.32498,5.99351 -10.25622,10.2061 0.0947,5.80286 4.23292,10.20647 10.25622,10.20661 6.07219,0.2803 10.38589,-3.83202 10.25674,-10.20661 -0.11927,-5.887 -4.59224,-10.20625 -10.25674,-10.2061 z"
             style="opacity:1;fill:url(#linearGradient1082);fill-opacity:1;fill-rule:nonzero;stroke:none;stroke-width:0.31037846;stroke-linecap:round;stroke-miterlimit:4;stroke-dasharray:none;stroke-opacity:1;paint-order:normal" />
          <path
             sodipodi:nodetypes="csssc"
             inkscape:connector-curvature="0"
             id="path1021"
             d="m 33.073607,164.61729 c -0.8488,-4e-5 -1.54505,0.67271 -1.59592,1.52504 -0.0708,1.18657 0.52052,1.65562 1.59592,1.54815 0.96195,-0.0961 1.86744,-0.55782 1.86758,-1.40641 1.4e-4,-0.84879 -1.01879,-1.66682 -1.86758,-1.66678 z"
             style="opacity:1;fill:#000000;fill-opacity:1;fill-rule:nonzero;stroke:none;stroke-width:0.26458332;stroke-linecap:round;stroke-miterlimit:4;stroke-dasharray:none;stroke-opacity:1;paint-order:normal" />
          <circle
             r="0.51783472"
             cy="165.61937"
             cx="33.724899"
             id="path1024"
             style="opacity:0.75899999;fill:#ffffff;fill-opacity:1;fill-rule:nonzero;stroke:none;stroke-width:0.26458332;stroke-linecap:round;stroke-miterlimit:4;stroke-dasharray:none;stroke-opacity:1;paint-order:normal" />
          <path
             sodipodi:nodetypes="sasas"
             inkscape:connector-curvature="0"
             id="path1026"
             d="m 45.451147,164.60075 c -0.75037,0 -1.32863,0.71883 -1.35858,1.35857 -0.0306,0.6536 0.21764,1.30375 1.25227,1.51161 1.05738,0.21243 1.54131,-0.79351 1.53504,-1.51161 -0.006,-0.65716 -0.67836,-1.35857 -1.42873,-1.35857 z"
             style="opacity:1;fill:#000000;fill-opacity:1;fill-rule:nonzero;stroke:none;stroke-width:0.26458332;stroke-linecap:round;stroke-miterlimit:4;stroke-dasharray:none;stroke-opacity:1;paint-order:normal" />
          <circle
             r="0.38978794"
             cy="165.54581"
             cx="46.041733"
             id="path1029"
             style="opacity:0.75899999;fill:#ffffff;fill-opacity:1;fill-rule:nonzero;stroke:none;stroke-width:0.26458332;stroke-linecap:round;stroke-miterlimit:4;stroke-dasharray:none;stroke-opacity:1;paint-order:normal" />
          <path
             sodipodi:nodetypes="scscs"
             inkscape:connector-curvature="0"
             id="path1031"
             d="m 39.828747,166.41967 c -0.37155,-0.021 -0.83307,0.18442 -0.83295,0.4189 1.6e-4,0.2343 0.35715,0.90035 0.85982,0.69416 0.36024,-0.14777 0.63583,-0.43164 0.76829,-0.62052 0.058,-0.21382 -0.2575,-0.46214 -0.79516,-0.49254 z"
             style="opacity:1;fill:url(#linearGradient2053);fill-opacity:1;fill-rule:nonzero;stroke:none;stroke-width:0.25723886;stroke-linecap:round;stroke-miterlimit:4;stroke-dasharray:none;stroke-opacity:1;paint-order:normal" />
          <path
             sodipodi:nodetypes="scsss"
             inkscape:connector-curvature="0"
             id="path1041"
             d="m 39.925339,169.58399 c -1.04744,0.0904 -1.208791,0.13755 -1.188491,0.38405 -0.03283,0.31568 0.721115,0.65802 1.332329,0.65525 0.503787,-0.002 1.257273,-0.42065 1.227708,-0.68782 -0.0272,-0.24582 -0.916966,-0.39101 -1.371546,-0.35148 z"
             style="opacity:1;fill:url(#linearGradient1144);fill-opacity:1;fill-rule:nonzero;stroke:none;stroke-width:0.27950272;stroke-linecap:round;stroke-miterlimit:4;stroke-dasharray:none;stroke-opacity:1;paint-order:normal" />
          <path
             sodipodi:nodetypes="ccsscsscc"
             inkscape:connector-curvature="0"
             id="path1034"
             d="m 41.422597,166.808 c -0.95712,-0.003 -1.2115,0.36804 -1.56424,0.68678 -0.42826,-0.57635 -1.49982,-0.61114 -1.91513,-0.55346 -0.98319,0.13654 -1.48674,0.83595 -1.51049,1.47439 -0.0651,1.7489 2.73469,1.80007 3.42563,1.24024 1.19536,0.71476 3.35109,0.17715 3.41374,-1.34669 0.0322,-0.78208 -0.61357,-1.41521 -1.39423,-1.47226 -0.14848,-0.0109 -0.31879,-0.0239 -0.45527,-0.0293 z"
             style="opacity:1;fill:url(#linearGradient1128);fill-opacity:1;fill-rule:nonzero;stroke:none;stroke-width:0.26458332;stroke-linecap:round;stroke-miterlimit:4;stroke-dasharray:none;stroke-opacity:1;paint-order:normal" />
          <path
             sodipodi:nodetypes="ccccccccc"
             inkscape:connector-curvature="0"
             id="path1047"
             d="m 30.429787,158.8374 c 4.66515,0.67379 9.13587,2.21536 14.40351,0.20045 l -0.68124,-2.53906 c -0.0953,-0.40583 -0.33943,-0.59428 -0.61638,-0.73499 -0.9257,-0.35146 -1.76654,-1.19819 -2.56279,-2.3052 -1.67371,-1.73462 -3.6564,-1.66217 -5.15801,0.20045 -0.97814,0.86746 -1.93082,1.78408 -3.24403,2.00452 -1.34433,0.29771 -1.91983,0.8275 -2.01131,1.50339 z"
             style="opacity:1;fill:url(#linearGradient1154);fill-opacity:1;fill-rule:evenodd;stroke:none;stroke-width:0.26072064px;stroke-linecap:butt;stroke-linejoin:miter;stroke-opacity:1" />
          <path
             inkscape:connector-curvature="0"
             id="path1049"
             d="m 38.587824,153.5622 c -1.10232,-4e-5 -2.238383,0.71824 -2.238623,1.82056 -4e-5,1.10252 1.177962,2.01284 2.28048,2.0128 1.102522,4e-5 2.221611,-0.48446 2.221572,-1.58699 -2.41e-4,-1.10232 -1.161108,-2.24641 -2.263429,-2.24637 z m 0.01809,0.26458 c 0.95508,-4e-5 1.960912,0.99105 1.961121,1.94614 4e-5,0.95525 -0.969698,1.37514 -1.924947,1.37511 -0.955252,3e-5 -1.97563,-0.78882 -1.975591,-1.74408 2.09e-4,-0.95508 0.984348,-1.57721 1.939417,-1.57717 z m 0.01344,0.38344 c -0.50255,0.009 -1.87924,0.52642 -0.6227,1.49914 l -0.36432,0.21807 c -0.0677,0.0404 -0.235271,-0.37277 -0.282671,-0.20515 -0.0815,0.43739 0.421468,0.70135 0.68058,0.58859 0.0124,0.0582 0.01336,0.11565 -0.02894,0.17105 -0.0501,0.0473 -0.191976,0.0948 -0.150379,0.14211 0.31378,0.11832 0.428901,-0.12233 0.592731,-0.27544 0.12887,0.0644 0.229481,0.1574 0.52193,0.0584 0.23899,-0.11772 0.385196,0.5038 0.743624,0.35502 0.06312,-0.0323 -0.140118,-0.30314 -0.09612,-0.40928 0.2687,0.003 0.374332,-0.18027 0.438732,-0.27957 0.03689,-0.0879 0.08609,-0.23083 0.12919,-0.34675 0.0527,-0.15258 -0.04961,-0.11864 -0.31729,0.22117 -0.0579,0.0721 -0.202219,0.0227 -0.32143,0.008 -0.0253,-0.0667 -0.04578,-0.13603 -0.09198,-0.19223 0.70108,-0.66782 -0.108159,-1.5504 -0.830958,-1.5534 z m -0.605647,0.65423 a 0.15296223,0.15296223 0 0 1 0.152961,0.15296 0.15296223,0.15296223 0 0 1 -0.152961,0.15296 0.15296223,0.15296223 0 0 1 -0.152964,-0.15296 0.15296223,0.15296223 0 0 1 0.152964,-0.15296 z m 1.203026,0.004 a 0.15296223,0.15296223 0 0 1 0.152963,0.15296 0.15296223,0.15296223 0 0 1 -0.152963,0.15297 0.15296223,0.15296223 0 0 1 -0.152961,-0.15297 0.15296223,0.15296223 0 0 1 0.152961,-0.15296 z m -0.549836,0.38034 a 0.23564453,0.15296223 0 0 1 0.235643,0.15296 0.23564453,0.15296223 0 0 1 -0.235643,0.15296 0.23564453,0.15296223 0 0 1 -0.235646,-0.15296 0.23564453,0.15296223 0 0 1 0.235646,-0.15296 z"
             style="opacity:1;fill:#b7e1ec;fill-opacity:1;fill-rule:nonzero;stroke:none;stroke-width:0.26458332;stroke-linecap:round;stroke-miterlimit:4;stroke-dasharray:none;stroke-opacity:1;paint-order:normal" />
          <path
             sodipodi:nodetypes="sssscscs"
             inkscape:connector-curvature="0"
             id="path1146"
             d="m 33.310067,176.18869 c -0.0435,-0.26136 -0.15122,-0.71767 0.21497,-0.72761 3.04317,-0.0826 6.06218,-0.10502 9.02891,-0.23151 0.15765,-0.007 0.14013,0.16112 0.16536,1.09141 0.0101,0.37281 -1.87431,1.10161 -2.82773,1.63711 -0.32481,-0.56285 -0.74562,-1.66919 -0.97565,-1.68672 -0.22252,-0.017 -0.56224,1.19063 -0.84336,1.78594 -1.51011,-0.66604 -4.68774,-1.41941 -4.7625,-1.86862 z"
             style="opacity:1;fill:url(#linearGradient1168);fill-opacity:1;fill-rule:evenodd;stroke:none;stroke-width:0.26458332px;stroke-linecap:butt;stroke-linejoin:miter;stroke-opacity:1" />
        </g>
      </g>
    </g>
  </g>
</svg>
