<?xml version="1.0" encoding="UTF-8" standalone="no"?>
<!-- Created with Inkscape (http://www.inkscape.org/) -->

<svg
   xmlns:dc="http://purl.org/dc/elements/1.1/"
   xmlns:cc="http://creativecommons.org/ns#"
   xmlns:rdf="http://www.w3.org/1999/02/22-rdf-syntax-ns#"
   xmlns:svg="http://www.w3.org/2000/svg"
   xmlns="http://www.w3.org/2000/svg"
   xmlns:xlink="http://www.w3.org/1999/xlink"
   xmlns:sodipodi="http://sodipodi.sourceforge.net/DTD/sodipodi-0.dtd"
   xmlns:inkscape="http://www.inkscape.org/namespaces/inkscape"
   width="98.562782"
   height="97.698486"
   viewBox="0 0 26.078069 25.849392"
   version="1.1"
   id="svg1178"
   sodipodi:docname="shalington.svg"
   inkscape:version="0.92.2 (5c3e80d, 2017-08-06)">
  <defs
     id="defs1172">
    <linearGradient
       inkscape:collect="always"
       xlink:href="#linearGradient1134"
       id="linearGradient1136"
       x1="132.30907"
       y1="229.40549"
       x2="131.90334"
       y2="228.14326"
       gradientUnits="userSpaceOnUse"
       gradientTransform="matrix(1,0,0,0.94525331,-92.339583,-49.662249)" />
    <linearGradient
       inkscape:collect="always"
       id="linearGradient1134">
      <stop
         style="stop-color:#747a83;stop-opacity:1;"
         offset="0"
         id="stop1130" />
      <stop
         style="stop-color:#a6aab0;stop-opacity:1"
         offset="1"
         id="stop1132" />
    </linearGradient>
    <linearGradient
       inkscape:collect="always"
       xlink:href="#linearGradient2931"
       id="linearGradient2933"
       x1="169.444"
       y1="174.4053"
       x2="145.49948"
       y2="169.12004"
       gradientUnits="userSpaceOnUse" />
    <linearGradient
       inkscape:collect="always"
       id="linearGradient2931">
      <stop
         style="stop-color:#715614;stop-opacity:1"
         offset="0"
         id="stop2927" />
      <stop
         style="stop-color:#8a6919;stop-opacity:1"
         offset="1"
         id="stop2929" />
    </linearGradient>
    <linearGradient
       inkscape:collect="always"
       xlink:href="#linearGradient2963"
       id="linearGradient2965"
       x1="151.29324"
       y1="172.2437"
       x2="171.70673"
       y2="190.62515"
       gradientUnits="userSpaceOnUse" />
    <linearGradient
       inkscape:collect="always"
       id="linearGradient2963">
      <stop
         style="stop-color:#ffe7b6;stop-opacity:1;"
         offset="0"
         id="stop2959" />
      <stop
         style="stop-color:#d3ad5c;stop-opacity:1"
         offset="1"
         id="stop2961" />
    </linearGradient>
    <linearGradient
       inkscape:collect="always"
       xlink:href="#linearGradient2971"
       id="linearGradient2973"
       x1="154.19283"
       y1="186.67451"
       x2="161.41379"
       y2="185.78584"
       gradientUnits="userSpaceOnUse" />
    <linearGradient
       inkscape:collect="always"
       id="linearGradient2971">
      <stop
         style="stop-color:#187b95;stop-opacity:1"
         offset="0"
         id="stop2967" />
      <stop
         style="stop-color:#28b8dd;stop-opacity:1"
         offset="1"
         id="stop2969" />
    </linearGradient>
    <linearGradient
       inkscape:collect="always"
       xlink:href="#linearGradient2931"
       id="linearGradient2941"
       x1="162.0789"
       y1="175.0033"
       x2="153.98732"
       y2="172.2905"
       gradientUnits="userSpaceOnUse"
       gradientTransform="translate(-0.04677217,-0.09354433)" />
  </defs>
  <sodipodi:namedview
     id="base"
     pagecolor="#ffffff"
     bordercolor="#666666"
     borderopacity="1.0"
     inkscape:pageopacity="0.0"
     inkscape:pageshadow="2"
     inkscape:zoom="3.959798"
     inkscape:cx="122.17202"
     inkscape:cy="18.312743"
     inkscape:document-units="px"
     inkscape:current-layer="layer1"
     showgrid="false"
     units="px"
     inkscape:window-width="1920"
     inkscape:window-height="1017"
     inkscape:window-x="-8"
     inkscape:window-y="-8"
     inkscape:window-maximized="1"
     showborder="true"
     borderlayer="false"
     fit-margin-top="-1.9428903e-016"
     fit-margin-left="0"
     fit-margin-right="0"
     fit-margin-bottom="0"
     inkscape:snap-global="false" />
  <metadata
     id="metadata1175">
    <rdf:RDF>
      <cc:Work
         rdf:about="">
        <dc:format>image/svg+xml</dc:format>
        <dc:type
           rdf:resource="http://purl.org/dc/dcmitype/StillImage" />
        <dc:title></dc:title>
      </cc:Work>
    </rdf:RDF>
  </metadata>
  <g
     inkscape:label="Layer 1"
     inkscape:groupmode="layer"
     id="layer1"
     transform="translate(-86.746679,-153.29554)">
    <g
       transform="translate(-57.727664,-9.0136478)"
       id="g2994">
      <path
         style="opacity:1;fill:#8a6919;fill-opacity:1;fill-rule:nonzero;stroke:none;stroke-width:0.28204677;stroke-linecap:round;stroke-miterlimit:4;stroke-dasharray:none;stroke-opacity:1;paint-order:normal"
         d="m 167.25646,169.19484 c -0.21023,-0.005 -0.40599,0.0433 -0.57568,0.14056 -1.65912,0.56495 -2.02117,2.03763 -1.45017,3.03494 0.571,0.9973 2.10443,1.70297 3.51826,0.57724 0.63166,-0.50294 0.8059,-1.53498 0.23461,-2.53266 -0.41552,-0.72574 -1.09577,-1.20631 -1.72702,-1.22008 z"
         id="path2907"
         inkscape:connector-curvature="0"
         sodipodi:nodetypes="cccscc" />
      <path
         sodipodi:nodetypes="cccscc"
         inkscape:connector-curvature="0"
         id="path2909"
         d="m 147.7703,168.86411 c 0.21023,-0.005 0.40598,0.0433 0.57568,0.14056 1.65912,0.56495 2.02117,2.03763 1.45017,3.03494 -0.571,0.9973 -2.10443,1.70298 -3.51826,0.57724 -0.63166,-0.50294 -0.80591,-1.53498 -0.23461,-2.53266 0.41552,-0.72574 1.09577,-1.2063 1.72702,-1.22008 z"
         style="opacity:1;fill:#8a6919;fill-opacity:1;fill-rule:nonzero;stroke:none;stroke-width:0.28204677;stroke-linecap:round;stroke-miterlimit:4;stroke-dasharray:none;stroke-opacity:1;paint-order:normal" />
      <path
         style="opacity:1;fill:url(#linearGradient2933);fill-opacity:1;fill-rule:nonzero;stroke:none;stroke-width:0.35240492;stroke-linecap:round;stroke-miterlimit:4;stroke-dasharray:none;stroke-opacity:1;paint-order:normal"
         d="m 157.59245,167.22183 c -6.10475,0.0983 -10.21389,3.66739 -11.01329,9.37617 -0.46431,13.8433 23.19853,11.89728 21.82813,0.0331 -0.69937,-6.05475 -4.49421,-9.511 -10.81484,-9.40925 z"
         id="path2887"
         inkscape:connector-curvature="0"
         sodipodi:nodetypes="scss" />
      <path
         style="opacity:1;fill:url(#linearGradient2965);fill-opacity:1;fill-rule:nonzero;stroke:none;stroke-width:0.26121089;stroke-linecap:round;stroke-miterlimit:4;stroke-dasharray:none;stroke-opacity:1;paint-order:normal"
         d="m 158.6928,172.17657 c -0.33027,-0.007 -0.6615,-0.002 -0.99246,0.0129 -5.48496,0.25476 -9.80086,3.41245 -9.63972,7.0528 0.16105,3.64025 5.18975,6.50043 10.67454,6.24561 5.48495,-0.25476 9.349,-3.5282 9.18786,-7.16855 -0.14995,-3.38545 -4.13985,-6.04075 -9.23022,-6.14278 z"
         id="path2901"
         inkscape:connector-curvature="0"
         sodipodi:nodetypes="cccccc" />
      <path
         style="opacity:1;fill:#000000;fill-opacity:1;fill-rule:nonzero;stroke:none;stroke-width:0.26458332;stroke-linecap:round;stroke-miterlimit:4;stroke-dasharray:none;stroke-opacity:1;paint-order:normal"
         d="m 152.18502,177.20985 c -0.97932,0.0302 -1.52135,1.07088 -1.52135,1.63711 -0.25981,2.68077 3.5399,1.01587 3.05924,-0.28112 -0.19676,-0.53095 -0.69061,-1.38208 -1.53789,-1.35599 z"
         id="path2889"
         inkscape:connector-curvature="0"
         sodipodi:nodetypes="scss" />
      <path
         sodipodi:nodetypes="ssss"
         inkscape:connector-curvature="0"
         id="path2891"
         d="m 165.33779,177.3834 c 0.82802,-0.0699 1.05262,1.02871 1.11379,1.50501 0.32493,2.53027 -2.59403,0.91677 -2.35194,-0.1731 0.19496,-0.8777 0.61878,-1.27963 1.23815,-1.33191 z"
         style="opacity:1;fill:#000000;fill-opacity:1;fill-rule:nonzero;stroke:none;stroke-width:0.22439438;stroke-linecap:round;stroke-miterlimit:4;stroke-dasharray:none;stroke-opacity:1;paint-order:normal" />
      <circle
         style="opacity:0.94599998;fill:#ffffff;fill-opacity:1;fill-rule:nonzero;stroke:none;stroke-width:0.26458332;stroke-linecap:round;stroke-miterlimit:4;stroke-dasharray:none;stroke-opacity:1;paint-order:normal"
         id="circle2893"
         cx="152.70108"
         cy="178.13383"
         r="0.38587037" />
      <ellipse
         cy="178.38817"
         cx="165.85576"
         id="ellipse2895"
         style="opacity:0.94599998;fill:#ffffff;fill-opacity:1;fill-rule:nonzero;stroke:none;stroke-width:0.20800617;stroke-linecap:round;stroke-miterlimit:4;stroke-dasharray:none;stroke-opacity:1;paint-order:normal"
         rx="0.26017016"
         ry="0.3537145" />
      <path
         style="opacity:1;fill:#8a6919;fill-opacity:1;fill-rule:nonzero;stroke:none;stroke-width:0.26458332;stroke-linecap:round;stroke-miterlimit:4;stroke-dasharray:none;stroke-opacity:1;paint-order:normal"
         d="m 159.19047,177.64834 c -0.45502,0.0247 -1.35779,1.363 -1.4965,2.03491 -0.1423,0.68921 0.0771,1.274 1.5082,1.26849 1.53576,-0.006 1.5548,-0.54401 1.4444,-1.23926 -0.10754,-0.67724 -1.08176,-2.04464 -1.4561,-2.06414 z"
         id="path2897"
         inkscape:connector-curvature="0"
         sodipodi:nodetypes="csssc" />
      <path
         style="opacity:1;fill:#8a6919;fill-opacity:1;fill-rule:evenodd;stroke:none;stroke-width:0.26458332px;stroke-linecap:butt;stroke-linejoin:miter;stroke-opacity:1"
         d="m 159.06694,180.96248 9.6e-4,0.7845 c -0.20912,0.37428 -0.74013,0.3596 -1.19854,0.43264 0.40408,-0.0598 0.61612,0.1978 1.24531,-0.23386 0.37512,0.33513 0.76681,0.25591 1.15177,0.34494 -0.35896,-0.16962 -0.973,-0.21169 -1.05451,-0.52004 l -0.0148,-0.80712 z"
         id="path2899"
         inkscape:connector-curvature="0"
         sodipodi:nodetypes="cccccccc" />
      <path
         style="opacity:1;fill:url(#linearGradient2973);fill-opacity:1;fill-rule:evenodd;stroke:none;stroke-width:0.20476338px;stroke-linecap:butt;stroke-linejoin:miter;stroke-opacity:1"
         d="m 154.19393,185.69325 c 1.16918,-0.03 5.03515,-0.0347 7.11654,-0.0407 0.22791,-6.6e-4 0.14005,0.64987 0.0966,0.86265 -0.0208,0.1027 -1.30199,0.84541 -2.22327,1.18129 -0.22327,-0.35764 -0.4648,-1.21197 -0.78503,-1.53352 -0.2432,0.32598 -0.36631,1.12076 -0.45508,1.4924 -1.01076,-0.23712 -3.67102,-1.2052 -3.71768,-1.39815 -0.0234,-0.11816 -0.0375,-0.44683 -0.032,-0.564 z"
         id="path2903"
         inkscape:connector-curvature="0"
         sodipodi:nodetypes="cssccccc" />
      <path
         style="opacity:1;fill:url(#linearGradient2941);fill-opacity:1;fill-rule:evenodd;stroke:none;stroke-width:0.26458332px;stroke-linecap:butt;stroke-linejoin:miter;stroke-opacity:1"
         d="m 153.847,172.64979 c 0.8033,-0.0954 1.63413,-0.27002 2.40877,-0.22216 2.28506,0.93384 3.15331,2.12528 3.74177,3.3676 -0.0334,-0.59462 -0.107,-1.22954 -0.23386,-1.91766 0.86817,0.70161 1.2419,1.76281 1.80073,2.6894 -0.16183,-0.95789 -0.37168,-1.85794 -0.77174,-2.93495 0.7198,0.14926 1.30576,0.83393 1.94104,1.32131 -0.47091,-1.0572 -1.00412,-1.98339 -1.71888,-2.88819 -3.61819,-0.39327 -5.78092,0.2601 -7.16783,0.58465 z"
         id="path2905"
         inkscape:connector-curvature="0"
         sodipodi:nodetypes="ccccccccc" />
      <path
         style="opacity:1;fill:#ffe7b6;fill-opacity:1;fill-rule:nonzero;stroke:none;stroke-width:0.26458332;stroke-linecap:round;stroke-miterlimit:4;stroke-dasharray:none;stroke-opacity:1;paint-order:normal"
         d="m 167.28023,170.4821 c -0.058,-5.3e-4 -0.11238,0.0113 -0.16123,0.0351 -0.36194,0.11468 -0.40006,0.57593 -0.10284,1.02681 0.22215,0.47199 0.61678,0.73137 0.87385,0.5488 0.35011,-0.10275 0.37407,-0.59047 0.12351,-1.03921 -0.16915,-0.34541 -0.47876,-0.56978 -0.73329,-0.57154 z"
         id="path2911"
         inkscape:connector-curvature="0"
         sodipodi:nodetypes="cccccc" />
      <path
         sodipodi:nodetypes="cccccc"
         inkscape:connector-curvature="0"
         id="path2913"
         d="m 148.0033,170.17808 c 0.058,-5.3e-4 0.11237,0.0114 0.16123,0.0351 0.36193,0.11468 0.40005,0.57593 0.10283,1.02681 -0.22215,0.47199 -0.61678,0.73137 -0.87385,0.5488 -0.35011,-0.10275 -0.37406,-0.59047 -0.1235,-1.03921 0.16914,-0.34541 0.47875,-0.56977 0.73329,-0.57154 z"
         style="opacity:1;fill:#ffe7b6;fill-opacity:1;fill-rule:nonzero;stroke:none;stroke-width:0.26458332;stroke-linecap:round;stroke-miterlimit:4;stroke-dasharray:none;stroke-opacity:1;paint-order:normal" />
      <path
         style="opacity:1;fill:#1c94b6;fill-opacity:1;fill-rule:nonzero;stroke:none;stroke-width:0.26458332;stroke-linecap:round;stroke-miterlimit:4;stroke-dasharray:none;stroke-opacity:1;paint-order:normal"
         d="m 157.18586,162.77164 c -1.48648,0.0367 -3.10058,2.51533 -3.10058,3.28249 0,0.76716 2.26728,0.85163 3.03444,0.85163 0.76715,0 3.7455,-0.32425 3.7455,-1.09141 0,-0.76715 -2.31728,-3.07632 -3.67936,-3.04271 z"
         id="path2915"
         inkscape:connector-curvature="0"
         sodipodi:nodetypes="sssss" />
      <path
         style="opacity:1;fill:#007296;fill-opacity:1;fill-rule:nonzero;stroke:none;stroke-width:0.26159114;stroke-linecap:round;stroke-miterlimit:4;stroke-dasharray:none;stroke-opacity:1;paint-order:normal"
         d="m 153.35612,167.62259 v 0.4516 c 2.73452,0.12934 5.45834,0.0405 8.16175,-0.46391 l 0.17539,-0.46415 c -2.7611,0.46677 -5.54503,0.54184 -8.33714,0.47646 z"
         id="path2917"
         inkscape:connector-curvature="0"
         sodipodi:nodetypes="ccccc" />
      <path
         style="opacity:1;fill:#01a4c3;fill-opacity:1;fill-rule:nonzero;stroke:none;stroke-width:0.26458332;stroke-linecap:round;stroke-miterlimit:4;stroke-dasharray:none;stroke-opacity:1;paint-order:normal"
         d="m 152.90005,166.16003 0.0585,1.46153 c 3.38699,0.10644 7.63975,0.19081 9.12027,-0.56127 l 0.22216,-1.36798 c -3.1532,0.1559 -6.27836,0.31181 -9.40089,0.46772 z"
         id="path2919"
         inkscape:connector-curvature="0"
         sodipodi:nodetypes="ccccc" />
      <path
         style="fill:none;fill-rule:evenodd;stroke:none;stroke-width:0.26458332px;stroke-linecap:butt;stroke-linejoin:miter;stroke-opacity:1"
         d="m 154.11834,166.12859 6.55671,-0.35554 z"
         id="path2921"
         inkscape:connector-curvature="0" />
      <path
         inkscape:connector-curvature="0"
         id="path2923"
         d="m 157.43093,163.33004 c -0.78818,-3e-5 -1.60048,0.50817 -1.60065,1.28809 -3e-5,0.78007 0.84226,1.42415 1.63058,1.42412 0.78832,3e-5 1.5885,-0.34277 1.58846,-1.12285 -1.7e-4,-0.77992 -0.83021,-1.58939 -1.61839,-1.58936 z m 0.013,0.1872 c 0.6829,-3e-5 1.40209,0.70119 1.40223,1.37694 4e-5,0.67587 -0.69335,0.97295 -1.37636,0.97293 -0.68303,2e-5 -1.41261,-0.55811 -1.4126,-1.23398 1.6e-4,-0.67575 0.70383,-1.11592 1.38673,-1.11589 z m 0.01,0.27129 c -0.35934,0.006 -1.3437,0.37246 -0.44525,1.06069 l -0.2605,0.15428 c -0.0484,0.0286 -0.16822,-0.26374 -0.20211,-0.14515 -0.0583,0.30947 0.30136,0.49623 0.48663,0.41645 0.009,0.0411 0.01,0.0818 -0.0207,0.12102 -0.0358,0.0335 -0.13726,0.0671 -0.10752,0.10055 0.22436,0.0837 0.30667,-0.0866 0.42381,-0.19489 0.0921,0.0456 0.16408,0.11137 0.37319,0.0413 0.17088,-0.0833 0.27543,0.35646 0.53171,0.25119 0.0451,-0.0228 -0.10019,-0.21448 -0.0687,-0.28957 0.19212,0.002 0.26765,-0.12755 0.31369,-0.1978 0.0264,-0.0622 0.0616,-0.16333 0.0924,-0.24534 0.0377,-0.10796 -0.0354,-0.084 -0.22687,0.15648 -0.0414,0.051 -0.14459,0.0161 -0.22983,0.005 -0.0181,-0.0472 -0.0327,-0.0962 -0.0657,-0.13601 0.50128,-0.4725 -0.0774,-1.09695 -0.59415,-1.09907 z m -0.43306,0.46289 a 0.10937073,0.10822491 0 0 1 0.10938,0.10822 0.10937073,0.10822491 0 0 1 -0.10938,0.10822 0.10937073,0.10822491 0 0 1 -0.10936,-0.10822 0.10937073,0.10822491 0 0 1 0.10936,-0.10822 z m 0.86019,0.003 a 0.10937073,0.10822491 0 0 1 0.10937,0.10822 0.10937073,0.10822491 0 0 1 -0.10937,0.10823 0.10937073,0.10822491 0 0 1 -0.10937,-0.10823 0.10937073,0.10822491 0 0 1 0.10937,-0.10822 z m -0.39315,0.26909 a 0.16849006,0.10822491 0 0 1 0.1685,0.10823 0.16849006,0.10822491 0 0 1 -0.1685,0.10822 0.16849006,0.10822491 0 0 1 -0.16849,-0.10822 0.16849006,0.10822491 0 0 1 0.16849,-0.10823 z"
         style="opacity:1;fill:#fdfdfd;fill-opacity:1;fill-rule:nonzero;stroke:none;stroke-width:0.18818823;stroke-linecap:round;stroke-miterlimit:4;stroke-dasharray:none;stroke-opacity:1;paint-order:normal" />
    </g>
  </g>
</svg>
