<?xml version="1.0" encoding="UTF-8" standalone="no"?>
<!-- Created with Inkscape (http://www.inkscape.org/) -->

<svg
   xmlns:dc="http://purl.org/dc/elements/1.1/"
   xmlns:cc="http://creativecommons.org/ns#"
   xmlns:rdf="http://www.w3.org/1999/02/22-rdf-syntax-ns#"
   xmlns:svg="http://www.w3.org/2000/svg"
   xmlns="http://www.w3.org/2000/svg"
   xmlns:xlink="http://www.w3.org/1999/xlink"
   xmlns:sodipodi="http://sodipodi.sourceforge.net/DTD/sodipodi-0.dtd"
   xmlns:inkscape="http://www.inkscape.org/namespaces/inkscape"
   width="98.562782"
   height="97.698486"
   viewBox="0 0 26.078069 25.849392"
   version="1.1"
   id="svg1178"
   sodipodi:docname="dashi.svg"
   inkscape:version="0.92.2 (5c3e80d, 2017-08-06)">
  <defs
     id="defs1172">
    <linearGradient
       inkscape:collect="always"
       xlink:href="#linearGradient1134"
       id="linearGradient1136"
       x1="132.30907"
       y1="229.40549"
       x2="131.90334"
       y2="228.14326"
       gradientUnits="userSpaceOnUse"
       gradientTransform="matrix(1,0,0,0.94525331,-92.339583,-49.662249)" />
    <linearGradient
       inkscape:collect="always"
       id="linearGradient1134">
      <stop
         style="stop-color:#747a83;stop-opacity:1;"
         offset="0"
         id="stop1130" />
      <stop
         style="stop-color:#a6aab0;stop-opacity:1"
         offset="1"
         id="stop1132" />
    </linearGradient>
    <linearGradient
       inkscape:collect="always"
       xlink:href="#linearGradient3670"
       id="linearGradient3672"
       x1="296.08749"
       y1="178.06079"
       x2="288.17163"
       y2="163.79527"
       gradientUnits="userSpaceOnUse" />
    <linearGradient
       inkscape:collect="always"
       id="linearGradient3670">
      <stop
         style="stop-color:#ae6a18;stop-opacity:1"
         offset="0"
         id="stop3666" />
      <stop
         style="stop-color:#e2902e;stop-opacity:1"
         offset="1"
         id="stop3668" />
    </linearGradient>
    <linearGradient
       inkscape:collect="always"
       xlink:href="#linearGradient3694"
       id="linearGradient3696"
       x1="285.43658"
       y1="178.75787"
       x2="293.95911"
       y2="163.34589"
       gradientUnits="userSpaceOnUse" />
    <linearGradient
       inkscape:collect="always"
       id="linearGradient3694">
      <stop
         style="stop-color:#4d3b14;stop-opacity:1"
         offset="0"
         id="stop3690" />
      <stop
         style="stop-color:#916d25;stop-opacity:1"
         offset="1"
         id="stop3692" />
    </linearGradient>
    <linearGradient
       inkscape:collect="always"
       xlink:href="#linearGradient3678"
       id="linearGradient3680"
       x1="290.8396"
       y1="172.12529"
       x2="291.00513"
       y2="173.71556"
       gradientUnits="userSpaceOnUse" />
    <linearGradient
       inkscape:collect="always"
       id="linearGradient3678">
      <stop
         style="stop-color:#f5ae5e;stop-opacity:1;"
         offset="0"
         id="stop3674" />
      <stop
         style="stop-color:#a57947;stop-opacity:1"
         offset="1"
         id="stop3676" />
    </linearGradient>
    <linearGradient
       inkscape:collect="always"
       xlink:href="#linearGradient3686"
       id="linearGradient3688"
       x1="290.90927"
       y1="178.8161"
       x2="290.81064"
       y2="177.08553"
       gradientUnits="userSpaceOnUse" />
    <linearGradient
       inkscape:collect="always"
       id="linearGradient3686">
      <stop
         style="stop-color:#018eac;stop-opacity:1;"
         offset="0"
         id="stop3682" />
      <stop
         style="stop-color:#013843;stop-opacity:1"
         offset="1"
         id="stop3684" />
    </linearGradient>
  </defs>
  <sodipodi:namedview
     id="base"
     pagecolor="#ffffff"
     bordercolor="#666666"
     borderopacity="1.0"
     inkscape:pageopacity="0.0"
     inkscape:pageshadow="2"
     inkscape:zoom="3.959798"
     inkscape:cx="55.265428"
     inkscape:cy="28.670596"
     inkscape:document-units="px"
     inkscape:current-layer="layer1"
     showgrid="false"
     units="px"
     inkscape:window-width="1920"
     inkscape:window-height="1017"
     inkscape:window-x="-8"
     inkscape:window-y="-8"
     inkscape:window-maximized="1"
     showborder="true"
     borderlayer="false"
     fit-margin-top="-1.9428903e-016"
     fit-margin-left="0"
     fit-margin-right="0"
     fit-margin-bottom="0"
     inkscape:snap-global="false" />
  <metadata
     id="metadata1175">
    <rdf:RDF>
      <cc:Work
         rdf:about="">
        <dc:format>image/svg+xml</dc:format>
        <dc:type
           rdf:resource="http://purl.org/dc/dcmitype/StillImage" />
        <dc:title></dc:title>
      </cc:Work>
    </rdf:RDF>
  </metadata>
  <g
     inkscape:label="Layer 1"
     inkscape:groupmode="layer"
     id="layer1"
     transform="translate(-86.746679,-153.29554)">
    <g
       transform="matrix(0.95144259,0,0,1.0287296,-178.42382,-6.5358869)"
       id="g3725">
      <path
         inkscape:connector-curvature="0"
         style="opacity:0.45700001;fill:#d40000;fill-opacity:1;fill-rule:nonzero;stroke:none;stroke-width:0.31103492;stroke-linecap:round;stroke-miterlimit:4;stroke-dasharray:none;stroke-opacity:1;paint-order:normal"
         d="m 292.17802,160.6243 a 10.538858,8.6634126 6.3331283 0 0 -10.18284,7.96851 10.538858,8.6634126 6.3331283 0 0 0.59842,3.26026 10.015107,7.4336623 4.109327 0 1 -0.22428,-1.8712 10.015107,7.4336623 4.109327 0 1 10.39265,-6.80682 10.015107,7.4336623 4.109327 0 1 9.59838,8.04085 10.015107,7.4336623 4.109327 0 1 -2.55643,4.59352 10.538858,8.6634126 6.3331283 0 0 3.21117,-5.77743 10.538858,8.6634126 6.3331283 0 0 -10.09241,-9.37823 10.538858,8.6634126 6.3331283 0 0 -0.74466,-0.0295 z m 7.52048,15.2678 a 10.015107,7.4336623 4.109327 0 1 -0.3514,0.24805 10.538858,8.6634126 6.3331283 0 0 0.3514,-0.24805 z"
         id="path3628" />
      <path
         sodipodi:nodetypes="cscccccc"
         style="opacity:1;fill:url(#linearGradient3672);fill-opacity:1;fill-rule:nonzero;stroke:none;stroke-width:0.2761488;stroke-linecap:round;stroke-miterlimit:4;stroke-dasharray:none;stroke-opacity:1;paint-order:normal"
         d="m 292.02919,163.64632 c -0.90642,-0.008 -1.9478,-0.67257 -2.77795,-0.51623 -3.97592,0.74875 -6.73429,4.00452 -6.90672,7.12036 -0.21911,3.96327 4.07814,7.44311 9.59837,7.7726 5.52026,0.32936 10.17312,-2.6164 10.39265,-6.57966 0.21949,-3.96345 -4.07787,-7.4436 -9.59838,-7.77309 -0.23588,-0.014 -0.47202,-0.022 -0.70797,-0.024 z"
         id="path3630"
         inkscape:connector-curvature="0" />
      <path
         style="opacity:1;fill:url(#linearGradient3696);fill-opacity:1;fill-rule:evenodd;stroke:none;stroke-width:0.26458332px;stroke-linecap:butt;stroke-linejoin:miter;stroke-opacity:1"
         d="m 286.14115,162.17971 c -4.34916,1.86652 -6.81494,5.52001 -6.92228,9.30767 -0.13197,4.65688 3.60204,2.66532 3.76516,1.40316 -0.49129,-1.19704 -0.91011,-2.40767 -0.42095,-3.78855 1.79821,-0.27854 4.0802,-2.34331 6.68842,-5.61265 2.79743,1.66376 5.87115,3.46565 9.16735,5.37879 1.00569,0.77122 2.09386,1.04753 3.15712,1.47333 0.60672,0.52369 1.12029,0.96597 -0.0468,3.74177 -1.31742,3.93666 6.63759,4.21178 3.20388,-5.51912 -2.54391,-5.39933 -8.50385,-11.23697 -18.5919,-6.3844 z"
         id="path3632"
         inkscape:connector-curvature="0"
         sodipodi:nodetypes="cscccccccc" />
      <path
         sodipodi:nodetypes="ccc"
         inkscape:connector-curvature="0"
         id="path3698"
         d="m 290.57208,162.76388 c 4.05973,1.87929 8.14539,3.65837 11.90352,6.80535 -3.57405,-2.22434 -7.71684,-4.52108 -11.90352,-6.80535 z"
         style="fill:#755818;fill-opacity:1;fill-rule:evenodd;stroke:none;stroke-width:0.26458332px;stroke-linecap:butt;stroke-linejoin:miter;stroke-opacity:1" />
      <path
         inkscape:connector-curvature="0"
         style="opacity:1;fill:#f1f5f4;fill-opacity:1;fill-rule:evenodd;stroke:none;stroke-width:0.26458332px;stroke-linecap:butt;stroke-linejoin:miter;stroke-opacity:1"
         d="m 293.12887,163.30941 c -0.46837,-0.0269 -1.75683,0.4476 -2.05414,1.26659 -0.24263,0.66838 0.34365,1.35579 0.87644,1.10794 0.8627,-0.40132 1.68267,-2.0153 1.32291,-2.33164 -0.0281,-0.0248 -0.0783,-0.0391 -0.14521,-0.0429 z m -0.48266,0.48937 c 0.0296,0.002 0.0521,0.007 0.0646,0.0176 0.15913,0.13269 -0.20388,0.80991 -0.5855,0.97824 -0.23567,0.10386 -0.49489,-0.18422 -0.38757,-0.46457 0.13151,-0.34352 0.70129,-0.54252 0.90847,-0.53124 z"
         id="path3634" />
      <path
         style="fill:#755818;fill-opacity:1;fill-rule:evenodd;stroke:none;stroke-width:0.1831086px;stroke-linecap:butt;stroke-linejoin:miter;stroke-opacity:1"
         d="m 294.63544,163.63134 c 2.67864,1.55251 5.38149,3.0376 7.7719,5.44462 -2.32204,-1.75951 -5.03145,-3.60497 -7.7719,-5.44462 z"
         id="path3700"
         inkscape:connector-curvature="0"
         sodipodi:nodetypes="ccc" />
      <path
         id="path3636"
         d="m 294.99119,164.2809 c -0.45586,0.11086 -1.54994,0.94047 -1.59549,1.81056 -0.0372,0.71009 0.72408,1.19665 1.16143,0.8042 0.70817,-0.63545 1.02184,-2.4184 0.58547,-2.61608 -0.0342,-0.0155 -0.0863,-0.0146 -0.15141,10e-4 z m -0.31897,0.60885 c 0.0289,-0.007 0.0519,-0.008 0.0669,-0.002 0.19091,0.0805 0.0412,0.83416 -0.27477,1.10646 -0.19514,0.16807 -0.52711,-0.0319 -0.50621,-0.33135 0.0256,-0.36694 0.5126,-0.72345 0.71407,-0.77308 z"
         style="opacity:1;fill:#f2b2bd;fill-opacity:1;fill-rule:evenodd;stroke:none;stroke-width:0.26458332px;stroke-linecap:butt;stroke-linejoin:miter;stroke-opacity:1"
         inkscape:connector-curvature="0" />
      <path
         style="fill:#5e4713;fill-opacity:1;fill-rule:evenodd;stroke:none;stroke-width:0.1800915px;stroke-linecap:butt;stroke-linejoin:miter;stroke-opacity:1"
         d="m 282.00028,168.70776 c 1.79629,-2.17981 3.23462,-3.85322 5.94148,-5.6219 -1.97611,2.06438 -3.62149,3.38416 -5.94148,5.6219 z"
         id="path3702"
         inkscape:connector-curvature="0"
         sodipodi:nodetypes="ccc" />
      <ellipse
         style="opacity:1;fill:#29282c;fill-opacity:1;fill-rule:nonzero;stroke:none;stroke-width:0.26458332;stroke-linecap:round;stroke-miterlimit:4;stroke-dasharray:none;stroke-opacity:1;paint-order:normal"
         id="ellipse3638"
         cx="285.50195"
         cy="170.72762"
         rx="1.3890625"
         ry="1.6371094" />
      <ellipse
         ry="1.6371094"
         rx="1.3890625"
         cy="171.95131"
         cx="298.36734"
         id="ellipse3640"
         style="opacity:1;fill:#29282c;fill-opacity:1;fill-rule:nonzero;stroke:none;stroke-width:0.26458332;stroke-linecap:round;stroke-miterlimit:4;stroke-dasharray:none;stroke-opacity:1;paint-order:normal" />
      <ellipse
         style="opacity:1;fill:#fbfefd;fill-opacity:1;fill-rule:nonzero;stroke:none;stroke-width:0.25618169;stroke-linecap:round;stroke-miterlimit:4;stroke-dasharray:none;stroke-opacity:1;paint-order:normal"
         id="ellipse3642"
         cx="285.92279"
         cy="170.19786"
         rx="0.37207031"
         ry="0.39687499" />
      <ellipse
         cy="171.46071"
         cx="298.9902"
         id="ellipse3644"
         style="opacity:1;fill:#fbfefd;fill-opacity:1;fill-rule:nonzero;stroke:none;stroke-width:0.25760099;stroke-linecap:round;stroke-miterlimit:4;stroke-dasharray:none;stroke-opacity:1;paint-order:normal"
         rx="0.37620443"
         ry="0.39687499" />
      <ellipse
         style="opacity:1;fill:#a57329;fill-opacity:1;fill-rule:nonzero;stroke:none;stroke-width:0.28613645;stroke-linecap:round;stroke-miterlimit:4;stroke-dasharray:none;stroke-opacity:1;paint-order:normal"
         id="ellipse3646"
         cx="291.77753"
         cy="171.75079"
         rx="0.66972655"
         ry="0.37000325" />
      <path
         sodipodi:nodetypes="cccsscc"
         inkscape:connector-curvature="0"
         id="path3664"
         d="m 290.53033,173.93972 c 0.39687,-0.009 0.6935,-0.10439 1.0544,-0.15519 0.3406,0.15406 0.68692,0.27176 0.982,0.31962 0.13181,0.0616 -0.24738,0.18346 -0.6803,0.0487 -0.18929,-0.0589 -0.39817,-0.0779 -0.58804,-0.0384 -0.30774,0.0641 -0.90746,-0.11385 -0.76806,-0.17475 z"
         style="opacity:1;fill:#9e5712;fill-opacity:1;fill-rule:evenodd;stroke:none;stroke-width:0.26458332px;stroke-linecap:butt;stroke-linejoin:miter;stroke-opacity:1" />
      <path
         style="opacity:1;fill:url(#linearGradient3680);fill-opacity:1;fill-rule:nonzero;stroke:none;stroke-width:0.25759372;stroke-linecap:round;stroke-miterlimit:4;stroke-dasharray:none;stroke-opacity:1;paint-order:normal"
         d="m 290.19455,171.68876 c -0.76081,0.0105 -1.34132,0.26219 -1.40702,0.84386 -0.0745,0.65978 0.56447,1.27374 1.42731,1.37149 0.53979,0.0606 1.14114,0.0501 1.37788,-0.0636 0.29866,0.19469 0.77997,0.28235 1.33771,0.30963 0.86759,0.0415 1.59661,-0.46265 1.62833,-1.12603 0.0318,-0.66346 -0.6693,-1.1205 -1.53699,-1.15148 -0.51468,-0.0183 -1.00581,0.0346 -1.31465,0.26568 -0.25046,-0.27604 -0.71841,-0.3951 -1.24488,-0.43984 -0.0891,-0.008 -0.17861,-0.0108 -0.26769,-0.01 z"
         id="path3648"
         inkscape:connector-curvature="0"
         sodipodi:nodetypes="ccccccccccc" />
      <path
         style="opacity:1;fill:url(#linearGradient3688);fill-opacity:1;fill-rule:evenodd;stroke:none;stroke-width:0.19946699px;stroke-linecap:butt;stroke-linejoin:miter;stroke-opacity:1"
         d="m 288.26991,177.32367 c 1.61941,0.55236 5.95105,0.49643 6.39508,0.50723 0.11303,0.003 0.0418,0.4851 0.11815,0.58434 0.0932,0.12111 -1.9094,0.89844 -2.79173,1.14496 -0.18131,-0.37859 -0.30954,-0.7025 -0.58054,-1.04469 -0.23834,0.33843 -0.46085,0.63005 -0.6032,1.01868 -0.61842,-0.45804 -2.16627,-0.87887 -2.6112,-1.22704 0.0176,-0.22724 0.003,-0.98516 0.0734,-0.98348 z"
         id="path3650"
         inkscape:connector-curvature="0"
         sodipodi:nodetypes="cssccccc" />
      <path
         style="opacity:1;fill:#1c94b6;fill-opacity:1;fill-rule:nonzero;stroke:none;stroke-width:0.26458332;stroke-linecap:round;stroke-miterlimit:4;stroke-dasharray:none;stroke-opacity:1;paint-order:normal"
         d="m 289.32025,156.32139 c -1.46579,0.24988 -2.70703,2.9347 -2.59681,3.6939 0.11022,0.7592 2.36611,0.51705 3.12531,0.40683 0.7592,-0.11021 3.66006,-0.85901 3.54983,-1.61821 -0.11021,-0.75919 -2.73522,-2.71148 -4.07833,-2.48252 z"
         id="path3652"
         inkscape:connector-curvature="0"
         sodipodi:nodetypes="sssss" />
      <path
         style="opacity:1;fill:#007296;fill-opacity:1;fill-rule:nonzero;stroke:none;stroke-width:0.26159114;stroke-linecap:round;stroke-miterlimit:4;stroke-dasharray:none;stroke-opacity:1;paint-order:normal"
         d="m 286.22718,161.67224 0.0649,0.44692 c 2.72473,-0.26488 5.40753,-0.74414 8.01042,-1.63172 l 0.10692,-0.48453 c -2.66539,0.85863 -5.40964,1.33288 -8.18219,1.66933 z"
         id="path3654"
         inkscape:connector-curvature="0"
         sodipodi:nodetypes="ccccc" />
      <path
         style="opacity:1;fill:#01a4c3;fill-opacity:1;fill-rule:nonzero;stroke:none;stroke-width:0.26458332;stroke-linecap:round;stroke-miterlimit:4;stroke-dasharray:none;stroke-opacity:1;paint-order:normal"
         d="m 285.56572,160.29038 0.26788,1.43796 c 3.36714,-0.38128 7.5879,-0.90879 8.94501,-1.86578 l 0.0233,-1.3857 c -3.09808,0.60731 -6.16842,1.2106 -9.23615,1.81351 z"
         id="path3656"
         inkscape:connector-curvature="0"
         sodipodi:nodetypes="ccccc" />
      <path
         style="fill:none;fill-rule:evenodd;stroke:none;stroke-width:0.26458332px;stroke-linecap:butt;stroke-linejoin:miter;stroke-opacity:1"
         d="m 286.76685,160.08423 6.4376,-1.29387 z"
         id="path3658"
         inkscape:connector-curvature="0" />
      <path
         inkscape:connector-curvature="0"
         id="path3660"
         d="m 289.77743,157.15003 c -0.6578,0.003 -1.33367,0.43054 -1.33068,1.08143 0.003,0.65101 0.70864,1.18517 1.36655,1.18198 0.65791,-0.003 1.32434,-0.29245 1.32117,-0.94348 -0.003,-0.6509 -0.69925,-1.32313 -1.35704,-1.31993 z m 0.0116,0.15618 c 0.56993,-0.003 1.17296,0.57956 1.17579,1.14352 0.003,0.56406 -0.57474,0.81479 -1.14476,0.81751 -0.57005,0.003 -1.18116,-0.4601 -1.18386,-1.02418 -0.003,-0.56395 0.58291,-0.93413 1.15283,-0.93685 z m 0.009,0.22636 c -0.29988,0.007 -1.11991,0.31624 -0.36733,0.88701 l -0.21679,0.1298 c -0.0403,0.0241 -0.14145,-0.21944 -0.16925,-0.12038 -0.0471,0.25858 0.2535,0.41294 0.4078,0.34561 0.008,0.0343 0.009,0.0682 -0.0172,0.101 -0.0298,0.0281 -0.11431,0.0566 -0.0894,0.0844 0.18758,0.0689 0.25559,-0.0735 0.35291,-0.16436 0.077,0.0377 0.1374,0.0923 0.31163,0.0329 0.14229,-0.0702 0.2313,0.29637 0.44476,0.2075 0.0375,-0.0193 -0.0845,-0.1786 -0.0584,-0.24139 0.16035,8.8e-4 0.22285,-0.10752 0.261,-0.16634 0.0218,-0.052 0.0508,-0.13655 0.0761,-0.20512 0.031,-0.0903 -0.0299,-0.0699 -0.18871,0.13151 -0.0343,0.0428 -0.1206,0.014 -0.19177,0.005 -0.0153,-0.0394 -0.0276,-0.0801 -0.0554,-0.11326 0.41645,-0.39635 -0.069,-0.91516 -0.50027,-0.91486 z m -0.35956,0.38806 a 0.09032226,0.09127854 89.72424 0 1 0.0917,0.0899 0.09032226,0.09127854 89.72424 0 1 -0.0909,0.0908 0.09032226,0.09127854 89.72424 0 1 -0.0917,-0.0899 0.09032226,0.09127854 89.72424 0 1 0.0909,-0.0907 z m 0.7179,-9.6e-4 a 0.09032226,0.09127854 89.72424 0 1 0.0917,0.0899 0.09032226,0.09127854 89.72424 0 1 -0.0909,0.0908 0.09032226,0.09127854 89.72424 0 1 -0.0917,-0.0899 0.09032226,0.09127854 89.72424 0 1 0.0909,-0.0907 z m -0.32703,0.22616 a 0.09032226,0.1406183 89.72424 0 1 0.14106,0.0897 0.09032226,0.1406183 89.72424 0 1 -0.14019,0.091 0.09032226,0.1406183 89.72424 0 1 -0.14106,-0.0897 0.09032226,0.1406183 89.72424 0 1 0.14019,-0.091 z"
         style="opacity:1;fill:#fdfdfd;fill-opacity:1;fill-rule:nonzero;stroke:none;stroke-width:0.15705799;stroke-linecap:round;stroke-miterlimit:4;stroke-dasharray:none;stroke-opacity:1;paint-order:normal" />
    </g>
  </g>
</svg>
