<?xml version="1.0" encoding="UTF-8" standalone="no"?>
<svg
   xmlns:dc="http://purl.org/dc/elements/1.1/"
   xmlns:cc="http://creativecommons.org/ns#"
   xmlns:rdf="http://www.w3.org/1999/02/22-rdf-syntax-ns#"
   xmlns:svg="http://www.w3.org/2000/svg"
   xmlns="http://www.w3.org/2000/svg"
   xmlns:xlink="http://www.w3.org/1999/xlink"
   xmlns:sodipodi="http://sodipodi.sourceforge.net/DTD/sodipodi-0.dtd"
   xmlns:inkscape="http://www.inkscape.org/namespaces/inkscape"
   id="svg1178"
   version="1.1"
   viewBox="0 0 26.078069 25.849392"
   height="97.698486"
   width="98.562782"
   sodipodi:docname="kwazii.svg"
   inkscape:version="0.92.2 (5c3e80d, 2017-08-06)">
  <sodipodi:namedview
     pagecolor="#ffffff"
     bordercolor="#666666"
     borderopacity="1"
     objecttolerance="10"
     gridtolerance="10"
     guidetolerance="10"
     inkscape:pageopacity="0"
     inkscape:pageshadow="2"
     inkscape:window-width="1920"
     inkscape:window-height="1017"
     id="namedview5725"
     showgrid="false"
     inkscape:zoom="6.8323351"
     inkscape:cx="19.016966"
     inkscape:cy="41.963193"
     inkscape:window-x="-8"
     inkscape:window-y="-8"
     inkscape:window-maximized="1"
     inkscape:current-layer="layer1" />
  <defs
     id="defs1172">
    <linearGradient
       inkscape:collect="always"
       id="linearGradient9971">
      <stop
         style="stop-color:#0a3d4e;stop-opacity:1"
         offset="0"
         id="stop9967" />
      <stop
         style="stop-color:#14799b;stop-opacity:1"
         offset="1"
         id="stop9969" />
    </linearGradient>
    <linearGradient
       gradientTransform="matrix(1,0,0,0.94525331,-92.339583,-49.662249)"
       gradientUnits="userSpaceOnUse"
       y2="228.14326"
       x2="131.90334"
       y1="229.40549"
       x1="132.30907"
       id="linearGradient1136"
       xlink:href="#linearGradient1134" />
    <linearGradient
       id="linearGradient1134">
      <stop
         id="stop1130"
         offset="0"
         style="stop-color:#747a83;stop-opacity:1;" />
      <stop
         id="stop1132"
         offset="1"
         style="stop-color:#a6aab0;stop-opacity:1" />
    </linearGradient>
    <linearGradient
       gradientUnits="userSpaceOnUse"
       y2="249.00787"
       x2="231.57967"
       y1="253.93575"
       x1="229.18265"
       id="linearGradient3339"
       xlink:href="#linearGradient3313" />
    <linearGradient
       id="linearGradient3313">
      <stop
         id="stop3309"
         offset="0"
         style="stop-color:#c88231;stop-opacity:1" />
      <stop
         id="stop3311"
         offset="1"
         style="stop-color:#fbca92;stop-opacity:1" />
    </linearGradient>
    <linearGradient
       gradientUnits="userSpaceOnUse"
       y2="256.07153"
       x2="210.43997"
       y1="256.86667"
       x1="214.11659"
       id="linearGradient3331"
       xlink:href="#linearGradient3313" />
    <linearGradient
       gradientUnits="userSpaceOnUse"
       y2="254.10573"
       x2="220.72449"
       y1="269.25314"
       x1="226.43153"
       id="linearGradient3315"
       xlink:href="#linearGradient3353" />
    <linearGradient
       id="linearGradient3353">
      <stop
         style="stop-color:#926734;stop-opacity:1"
         offset="0"
         id="stop3349" />
      <stop
         style="stop-color:#ffca8e;stop-opacity:1"
         offset="1"
         id="stop3351" />
    </linearGradient>
    <linearGradient
       gradientUnits="userSpaceOnUse"
       y2="261.9375"
       x2="225.05486"
       y1="265.21155"
       x1="226.21487"
       id="linearGradient3323"
       xlink:href="#linearGradient3321" />
    <linearGradient
       id="linearGradient3321">
      <stop
         id="stop3317"
         offset="0"
         style="stop-color:#77743e;stop-opacity:1" />
      <stop
         id="stop3319"
         offset="1"
         style="stop-color:#f7f39f;stop-opacity:1" />
    </linearGradient>
    <linearGradient
       gradientUnits="userSpaceOnUse"
       y2="248.09708"
       x2="218.88013"
       y1="251.13979"
       x1="221.46307"
       id="linearGradient3347"
       xlink:href="#linearGradient3345" />
    <linearGradient
       id="linearGradient3345">
      <stop
         id="stop3341"
         offset="0"
         style="stop-color:#056172;stop-opacity:1" />
      <stop
         id="stop3343"
         offset="1"
         style="stop-color:#09b8da;stop-opacity:1" />
    </linearGradient>
    <linearGradient
       inkscape:collect="always"
       xlink:href="#linearGradient9971"
       id="linearGradient9973"
       x1="226.34874"
       y1="272.90463"
       x2="225.83199"
       y2="270.70624"
       gradientUnits="userSpaceOnUse" />
  </defs>
  <metadata
     id="metadata1175">
    <rdf:RDF>
      <cc:Work
         rdf:about="">
        <dc:format>image/svg+xml</dc:format>
        <dc:type
           rdf:resource="http://purl.org/dc/dcmitype/StillImage" />
        <dc:title />
      </cc:Work>
    </rdf:RDF>
  </metadata>
  <g
     transform="matrix(0.95847737,0,0,0.97764166,-82.603318,-149.57913)"
     id="layer1">
    <g
       id="g3380"
       transform="translate(-122.57294,-93.880816)">
      <path
         style="opacity:1;fill:url(#linearGradient3339);fill-opacity:1;fill-rule:evenodd;stroke:none;stroke-width:0.24212685px;stroke-linecap:butt;stroke-linejoin:miter;stroke-opacity:1"
         d="m 226.73524,252.86232 c 0.52162,-1.004 1.87696,-2.04392 3.85881,-3.11083 0.57741,-0.1905 1.35611,-0.49972 1.47981,0.8153 0.25563,2.71752 -0.0293,3.55018 -0.23904,6.07364 z"
         id="path3257"
         inkscape:connector-curvature="0" />
      <path
         id="path3259"
         d="m 216.66067,255.34466 c -1.04735,-0.65696 -2.9,-0.8861 -5.35781,-0.79375 -0.64943,0.14029 -1.3626,0.20665 -0.94258,1.5875 0.32557,0.9862 0.94155,1.5852 1.52136,2.23242 0.79728,-0.35721 1.63233,0.73855 0.76068,1.50482 l 1.30638,1.85208 z"
         style="opacity:1;fill:url(#linearGradient3331);fill-opacity:1;fill-rule:evenodd;stroke:none;stroke-width:0.26458332px;stroke-linecap:butt;stroke-linejoin:miter;stroke-opacity:1"
         inkscape:connector-curvature="0" />
      <path
         style="opacity:1;fill:#dfc884;fill-opacity:1;fill-rule:evenodd;stroke:none;stroke-width:0.24212685px;stroke-linecap:butt;stroke-linejoin:miter;stroke-opacity:1"
         d="m 230.78551,254.91773 c 0.40543,-1.28894 0.3673,-2.58188 0.46617,-3.87359 -0.0995,-0.22896 -0.18782,-0.47287 -0.59561,-0.29533 -0.9649,0.75623 -2.31079,1.2652 -2.80134,2.32932 z"
         id="path3263"
         inkscape:connector-curvature="0" />
      <path
         id="path3265"
         d="m 213.9833,259.5238 c -1.09569,-0.98975 -1.77573,-2.22888 -2.58416,-3.39098 -0.033,-0.27082 -0.0849,-0.54947 0.39756,-0.60804 1.32775,0.1781 2.87748,-0.0877 3.92886,0.64311 z"
         style="opacity:1;fill:#dfc884;fill-opacity:1;fill-rule:evenodd;stroke:none;stroke-width:0.26458332px;stroke-linecap:butt;stroke-linejoin:miter;stroke-opacity:1"
         inkscape:connector-curvature="0" />
      <path
         id="path3261"
         d="m 223.78634,251.73244 c -0.69751,0.0219 -1.39344,0.10878 -2.07739,0.25941 -5.66,1.24659 -8.9665,6.23805 -8.19795,11.73985 1.13223,5.23747 5.4481,8.50595 12.69586,6.89572 5.66027,-1.24659 9.64578,-6.30057 7.83415,-11.34351 -2.11164,-5.87806 -5.28301,-7.70728 -10.25467,-7.55147 z"
         style="opacity:1;fill:url(#linearGradient3315);fill-opacity:1;fill-rule:nonzero;stroke:none;stroke-width:0.27980295;stroke-linecap:round;stroke-miterlimit:4;stroke-dasharray:none;stroke-opacity:1;paint-order:normal"
         inkscape:connector-curvature="0" />
      <path
         id="path3267"
         d="m 232.54859,256.05545 c -2.10206,0.28885 -13.6775,3.88858 -19.16162,7.85299 l 0.32763,0.98236 c 0.57235,-0.35512 1.19792,-0.71248 1.84485,-1.06918 0.2079,1.02084 2.47494,2.11193 4.00596,1.62936 1.68296,-0.53049 3.04063,-2.05919 3.04064,-3.50883 -0.0117,-1.11751 -0.28361,-1.10699 -0.0805,-1.3477 5.1341,-2.2712 9.32131,-3.66672 10.53148,-3.6445 z"
         style="opacity:1;fill:#35373b;fill-opacity:1;fill-rule:nonzero;stroke:none;stroke-width:0.26458332;stroke-linecap:round;stroke-miterlimit:4;stroke-dasharray:none;stroke-opacity:1;paint-order:normal"
         inkscape:connector-curvature="0" />
      <ellipse
         transform="matrix(0.99111915,-0.13297678,0.05677676,0.9983869,0,0)"
         ry="0.54432929"
         rx="0.78646749"
         cy="290.51947"
         cx="210.44362"
         id="ellipse3269"
         style="opacity:1;fill:#e67bb0;fill-opacity:1;fill-rule:nonzero;stroke:none;stroke-width:0.52343315;stroke-linecap:round;stroke-miterlimit:4;stroke-dasharray:none;stroke-opacity:1;paint-order:normal" />
      <path
         id="path3271"
         d="m 227.22954,261.4135 c -0.86699,10e-4 -1.72847,0.4026 -1.89188,1.11569 -1.38494,-0.66166 -3.24021,0.26478 -3.19101,1.39423 -0.0273,0.88105 0.79814,1.31198 1.55856,1.24385 0.85319,-0.0868 1.69703,-0.6411 1.98461,-0.81773 1.17285,0.1663 2.97466,-0.32603 2.91845,-1.51339 -0.12327,-1.03982 -0.71892,-1.42372 -1.37873,-1.42265 z"
         style="opacity:1;fill:url(#linearGradient3323);fill-opacity:1;fill-rule:nonzero;stroke:none;stroke-width:0.27293184;stroke-linecap:round;stroke-miterlimit:4;stroke-dasharray:none;stroke-opacity:1;paint-order:normal"
         inkscape:connector-curvature="0" />
      <path
         id="path3273"
         d="m 229.34414,261.40527 c -0.3825,0.21391 -0.74808,-0.10487 -0.66146,-0.45475 0.60856,-2.45812 3.15505,-3.604 4.06797,-1.15755 0.11263,0.30182 0.10032,0.70948 -0.33149,0.70898 -0.71544,-8.3e-4 -2.16511,0.39446 -3.07502,0.90332 z"
         style="opacity:1;fill:#222929;fill-opacity:1;fill-rule:evenodd;stroke:none;stroke-width:0.26458332px;stroke-linecap:butt;stroke-linejoin:miter;stroke-opacity:1"
         inkscape:connector-curvature="0" />
      <circle
         r="0.36380208"
         cy="259.15634"
         cx="231.56828"
         id="circle3275"
         style="opacity:1;fill:#e8ebe9;fill-opacity:1;fill-rule:nonzero;stroke:none;stroke-width:0.26458332;stroke-linecap:round;stroke-miterlimit:4;stroke-dasharray:none;stroke-opacity:1;paint-order:normal" />
      <path
         id="path3277"
         d="m 224.06901,265.20039 c 0.57345,-0.17081 1.13811,-0.36139 1.6247,-0.72761 0.49536,0.0235 0.98822,0.0378 1.45108,-0.0579 -0.13768,1.96395 -2.53737,2.06019 -3.07578,0.78551 z"
         style="opacity:1;fill:#10050d;fill-opacity:1;fill-rule:evenodd;stroke:none;stroke-width:0.26458332px;stroke-linecap:butt;stroke-linejoin:miter;stroke-opacity:1"
         inkscape:connector-curvature="0" />
      <path
         id="path3279"
         d="m 224.02762,265.96083 c 1.52755,1.37 2.71504,0.8858 3.58977,-0.71329 -0.93628,1.21394 -2.03329,1.82513 -3.58977,0.71329 z"
         style="opacity:0.98900003;fill:#9e662b;fill-opacity:1;fill-rule:evenodd;stroke:none;stroke-width:0.26458332px;stroke-linecap:butt;stroke-linejoin:miter;stroke-opacity:1"
         inkscape:connector-curvature="0" />
      <ellipse
         ry="0.44433558"
         rx="0.35079125"
         cy="266.15378"
         cx="221.25636"
         id="ellipse3281"
         style="opacity:1;fill:#7e5e34;fill-opacity:1;fill-rule:nonzero;stroke:none;stroke-width:0.26458332;stroke-linecap:round;stroke-miterlimit:4;stroke-dasharray:none;stroke-opacity:1;paint-order:normal" />
      <ellipse
         transform="rotate(-25.634482)"
         style="opacity:1;fill:#7e5e34;fill-opacity:1;fill-rule:nonzero;stroke:none;stroke-width:0.26458332;stroke-linecap:round;stroke-miterlimit:4;stroke-dasharray:none;stroke-opacity:1;paint-order:normal"
         id="ellipse3283"
         cx="83.223648"
         cy="336.61194"
         rx="0.35079125"
         ry="0.44433558" />
      <ellipse
         ry="0.44433558"
         rx="0.35079125"
         cy="335.71817"
         cx="81.901634"
         id="ellipse3285"
         style="opacity:1;fill:#7e5e34;fill-opacity:1;fill-rule:nonzero;stroke:none;stroke-width:0.26458332;stroke-linecap:round;stroke-miterlimit:4;stroke-dasharray:none;stroke-opacity:1;paint-order:normal"
         transform="rotate(-25.634482)" />
      <ellipse
         transform="rotate(2.8318947)"
         style="opacity:1;fill:#7e5e34;fill-opacity:1;fill-rule:nonzero;stroke:none;stroke-width:0.22051859;stroke-linecap:round;stroke-miterlimit:4;stroke-dasharray:none;stroke-opacity:1;paint-order:normal"
         id="ellipse3287"
         cx="242.8802"
         cy="251.95297"
         rx="0.29236913"
         ry="0.37033421" />
      <ellipse
         ry="0.38788185"
         rx="0.30622253"
         cy="251.74063"
         cx="244.92433"
         id="ellipse3289"
         style="opacity:1;fill:#7e5e34;fill-opacity:1;fill-rule:nonzero;stroke:none;stroke-width:0.23096748;stroke-linecap:round;stroke-miterlimit:4;stroke-dasharray:none;stroke-opacity:1;paint-order:normal"
         transform="rotate(2.8318947)" />
      <ellipse
         transform="matrix(0.97655095,0.21528644,-0.18207946,0.98328382,0,0)"
         style="opacity:1;fill:#7e5e34;fill-opacity:1;fill-rule:nonzero;stroke:none;stroke-width:0.24132952;stroke-linecap:round;stroke-miterlimit:4;stroke-dasharray:none;stroke-opacity:1;paint-order:normal"
         id="ellipse3291"
         cx="275.57837"
         cy="208.72365"
         rx="0.30736458"
         ry="0.42189267" />
      <path
         id="path3293"
         d="m 222.32868,270.9468 c 2.18889,-0.1649 6.70941,-1.8033 7.22127,-1.85063 0.26668,-0.0247 0.4033,0.85817 0.53327,0.92892 0.11387,0.062 -0.65275,0.96548 -1.52024,1.61983 -0.32655,-0.37133 -0.93883,-0.91766 -1.3565,-1.21925 -0.16612,0.45917 -0.0563,1.14133 -0.05,1.61387 -0.85153,-0.32247 -4.12811,-0.0401 -4.74662,-0.29321 -0.0723,-0.1922 -0.0759,-0.64801 -0.0812,-0.79953 z"
         style="opacity:1;fill:url(#linearGradient9973);fill-opacity:1;fill-rule:evenodd;stroke:none;stroke-width:0.23567362px;stroke-linecap:butt;stroke-linejoin:miter;stroke-opacity:1"
         inkscape:connector-curvature="0" />
      <path
         id="path3295"
         d="m 219.07818,248.22373 c -1.42334,0.43018 -2.32113,3.24851 -2.11736,3.98812 0.20375,0.7396 2.41204,0.21885 3.15165,0.0151 0.73959,-0.20376 3.52484,-1.30744 3.32109,-2.04705 -0.20377,-0.73959 -3.05115,-2.35033 -4.35538,-1.95614 z"
         style="opacity:1;fill:url(#linearGradient3347);fill-opacity:1;fill-rule:nonzero;stroke:none;stroke-width:0.26458332;stroke-linecap:round;stroke-miterlimit:4;stroke-dasharray:none;stroke-opacity:1;paint-order:normal"
         inkscape:connector-curvature="0" />
      <path
         id="path3297"
         d="m 216.68348,253.92181 0.11185,0.43466 c 2.66835,-0.65302 5.27234,-1.51297 7.75369,-2.76717 l 0.0542,-0.4966 c -2.54631,1.23432 -5.21165,2.09814 -7.91967,2.82912 z"
         style="opacity:1;fill:#1b6788;fill-opacity:1;fill-rule:nonzero;stroke:none;stroke-width:0.26137498;stroke-linecap:round;stroke-miterlimit:4;stroke-dasharray:none;stroke-opacity:1;paint-order:normal"
         inkscape:connector-curvature="0" />
      <path
         id="path3299"
         d="m 215.8463,252.62873 0.44458,1.39351 c 3.29359,-0.79698 7.41602,-1.84521 8.6436,-2.96351 l -0.14915,-1.37785 c -2.99853,0.98781 -5.97004,1.96817 -8.939,2.94785 z"
         style="opacity:1;fill:#1c94b6;fill-opacity:1;fill-rule:nonzero;stroke:none;stroke-width:0.26458332;stroke-linecap:round;stroke-miterlimit:4;stroke-dasharray:none;stroke-opacity:1;paint-order:normal"
         inkscape:connector-curvature="0" />
      <path
         id="path3301"
         d="m 217.01248,252.27484 6.22677,-2.08427 z"
         style="fill:none;fill-rule:evenodd;stroke:none;stroke-width:0.26458332px;stroke-linecap:butt;stroke-linejoin:miter;stroke-opacity:1"
         inkscape:connector-curvature="0" />
      <path
         style="opacity:1;fill:#fdfdfd;fill-opacity:1;fill-rule:nonzero;stroke:none;stroke-width:0.16760688;stroke-linecap:round;stroke-miterlimit:4;stroke-dasharray:none;stroke-opacity:1;paint-order:normal"
         d="m 219.39288,248.73031 c -0.67321,0.18545 -1.24617,0.81526 -1.06085,1.48851 0.18547,0.67335 1.05807,1.0311 1.73139,0.84557 0.67334,-0.18548 1.27529,-0.66966 1.08974,-1.343 -0.18561,-0.67317 -1.08707,-1.17658 -1.76028,-0.99108 z m 0.0556,0.15853 c 0.58328,-0.16072 1.36431,0.27532 1.52515,0.85858 0.16074,0.58339 -0.36086,1.00299 -0.94424,1.16369 -0.58339,0.16074 -1.33928,-0.14933 -1.49999,-0.73274 -0.16057,-0.58332 0.33578,-1.12885 0.91908,-1.28953 z m 0.0727,0.23193 c -0.30542,0.0899 -1.05911,0.63768 -0.12806,1.02034 l -0.18581,0.19446 c -0.0346,0.0361 -0.2064,-0.18807 -0.20714,-0.0777 0.0238,0.28084 0.3754,0.35742 0.51467,0.24496 0.0175,0.0334 0.0277,0.0684 0.0111,0.10932 -0.0226,0.0372 -0.10129,0.0902 -0.0679,0.11209 0.21153,0.0194 0.24135,-0.14688 0.31565,-0.26795 0.0895,0.0177 0.16663,0.0575 0.32857,-0.0522 0.12616,-0.11208 0.32003,0.24287 0.51389,0.0917 0.0331,-0.0304 -0.13658,-0.16155 -0.12755,-0.23378 0.16452,-0.0437 0.19827,-0.17308 0.2209,-0.24455 0.008,-0.0599 0.0139,-0.15547 0.0205,-0.23351 0.006,-0.10208 -0.0503,-0.0641 -0.15655,0.18846 -0.0232,0.0538 -0.11969,0.0479 -0.19504,0.0586 -0.0267,-0.0365 -0.0508,-0.0753 -0.0885,-0.10193 0.31579,-0.52582 -0.32695,-0.92866 -0.76885,-0.80888 z m -0.2598,0.50147 a 0.09689773,0.09689773 0 0 1 0.11916,0.0677 0.09689773,0.09689773 0 0 1 -0.0677,0.11915 0.09689773,0.09689773 0 0 1 -0.11915,-0.0677 0.09689773,0.09689773 0 0 1 0.0677,-0.11913 z m 0.73536,-0.20012 a 0.09689773,0.09689773 0 0 1 0.11915,0.0677 0.09689773,0.09689773 0 0 1 -0.0677,0.11916 0.09689773,0.09689773 0 0 1 -0.11916,-0.0677 0.09689773,0.09689773 0 0 1 0.0677,-0.11916 z m -0.27181,0.32479 a 0.09689773,0.14927488 74.597039 0 1 0.16965,0.0538 0.09689773,0.14927488 74.597039 0 1 -0.11818,0.13307 0.09689773,0.14927488 74.597039 0 1 -0.16965,-0.0538 0.09689773,0.14927488 74.597039 0 1 0.11818,-0.13307 z"
         id="path3303"
         inkscape:connector-curvature="0" />
      <path
         style="opacity:1;fill:#1b6788;fill-opacity:1;fill-rule:nonzero;stroke:none;stroke-width:0.25262043;stroke-linecap:round;stroke-miterlimit:4;stroke-dasharray:none;stroke-opacity:1;paint-order:normal"
         d="m 216.01591,253.16633 0.13045,0.40086 c 2.66835,-0.61001 6.24814,-1.75792 8.72949,-2.92951 l -0.0368,-0.42255 c -2.54631,1.15302 -6.1151,2.26838 -8.82312,2.95121 z"
         id="path3307"
         inkscape:connector-curvature="0" />
    </g>
  </g>
</svg>
